<?xml version="1.0" encoding="utf-8"?>
<!-- Generator: Adobe Illustrator 19.0.0, SVG Export Plug-In . SVG Version: 6.00 Build 0)  -->
<svg version="1.1" id="Layer_1" xmlns="http://www.w3.org/2000/svg" xmlns:xlink="http://www.w3.org/1999/xlink" x="0px" y="0px"
	 viewBox="0 0 1628 1639.9" style="enable-background:new 0 0 1628 1639.9;" xml:space="preserve">
<style type="text/css">
	.st0{fill:none;stroke:#000000;stroke-width:10;stroke-miterlimit:10;}
	.st1{fill:none;stroke:#000000;stroke-width:5;stroke-miterlimit:10;}
	.st2{font-family:'MyriadPro-Regular';}
	.st3{font-size:72px;}
</style>
<line id="XMLID_4_" class="st0" x1="810.3" y1="120.3" x2="810.3" y2="81.5"/>
<line id="XMLID_6_" class="st1" x1="738.7" y1="124" x2="735" y2="88.2"/>
<line id="XMLID_7_" class="st1" x1="668" y1="135.2" x2="660.5" y2="100"/>
<line id="XMLID_8_" class="st1" x1="598.8" y1="153.8" x2="587.7" y2="119.5"/>
<line id="XMLID_9_" class="st1" x1="532" y1="179.4" x2="517.3" y2="146.6"/>
<line id="XMLID_10_" class="st0" x1="468.1" y1="212" x2="450.1" y2="180.8"/>
<line id="XMLID_11_" class="st1" x1="408.1" y1="251" x2="386.9" y2="221.8"/>
<line id="XMLID_12_" class="st1" x1="352.4" y1="296" x2="328.3" y2="269.3"/>
<line id="XMLID_13_" class="st1" x1="301.8" y1="346.7" x2="275" y2="322.6"/>
<line id="XMLID_14_" class="st1" x1="256.7" y1="402.3" x2="227.6" y2="381.2"/>
<line id="XMLID_15_" class="st0" x1="217.7" y1="462.4" x2="186.5" y2="444.4"/>
<line id="XMLID_16_" class="st1" x1="185.2" y1="526.2" x2="152.3" y2="511.6"/>
<line id="XMLID_17_" class="st1" x1="159.5" y1="593.1" x2="125.3" y2="582"/>
<line id="XMLID_18_" class="st1" x1="141" y1="662.3" x2="105.8" y2="654.8"/>
<line id="XMLID_19_" class="st1" x1="129.8" y1="733" x2="94" y2="729.3"/>
<line id="XMLID_20_" class="st0" x1="126" y1="804.5" x2="90" y2="804.5"/>
<line id="XMLID_21_" class="st1" x1="129.8" y1="876.1" x2="94" y2="879.8"/>
<line id="XMLID_22_" class="st1" x1="141" y1="946.8" x2="105.8" y2="954.3"/>
<line id="XMLID_23_" class="st1" x1="159.5" y1="1016" x2="125.3" y2="1027.1"/>
<line id="XMLID_24_" class="st1" x1="185.2" y1="1082.9" x2="152.3" y2="1097.5"/>
<line id="XMLID_25_" class="st0" x1="217.7" y1="1146.7" x2="186.5" y2="1164.7"/>
<line id="XMLID_26_" class="st1" x1="256.7" y1="1206.7" x2="227.6" y2="1227.9"/>
<line id="XMLID_27_" class="st1" x1="301.8" y1="1262.4" x2="275" y2="1286.5"/>
<line id="XMLID_28_" class="st1" x1="352.4" y1="1313" x2="328.3" y2="1339.8"/>
<line id="XMLID_29_" class="st1" x1="408.1" y1="1358.1" x2="386.9" y2="1387.2"/>
<line id="XMLID_30_" class="st0" x1="468.1" y1="1397.1" x2="450.1" y2="1428.3"/>
<line id="XMLID_31_" class="st1" x1="532" y1="1429.6" x2="517.3" y2="1462.5"/>
<line id="XMLID_32_" class="st1" x1="598.8" y1="1455.3" x2="587.7" y2="1489.5"/>
<line id="XMLID_33_" class="st1" x1="668" y1="1473.8" x2="660.5" y2="1509.1"/>
<line id="XMLID_34_" class="st1" x1="738.7" y1="1485" x2="735" y2="1520.9"/>
<line id="XMLID_35_" class="st0" x1="810.3" y1="1488.8" x2="810.3" y2="1524.8"/>
<line id="XMLID_36_" class="st1" x1="881.8" y1="1485" x2="885.6" y2="1520.9"/>
<line id="XMLID_37_" class="st1" x1="952.5" y1="1473.8" x2="960" y2="1509.1"/>
<line id="XMLID_38_" class="st1" x1="1021.7" y1="1455.3" x2="1032.8" y2="1489.5"/>
<line id="XMLID_39_" class="st1" x1="1088.6" y1="1429.6" x2="1103.2" y2="1462.5"/>
<line id="XMLID_40_" class="st0" x1="1152.4" y1="1397.1" x2="1170.4" y2="1428.3"/>
<line id="XMLID_41_" class="st1" x1="1212.5" y1="1358.1" x2="1233.6" y2="1387.2"/>
<line id="XMLID_42_" class="st1" x1="1268.1" y1="1313" x2="1292.2" y2="1339.8"/>
<line id="XMLID_43_" class="st1" x1="1318.8" y1="1262.4" x2="1345.5" y2="1286.5"/>
<line id="XMLID_44_" class="st1" x1="1363.8" y1="1206.7" x2="1393" y2="1227.9"/>
<line id="XMLID_45_" class="st0" x1="1402.9" y1="1146.7" x2="1434" y2="1164.7"/>
<line id="XMLID_46_" class="st1" x1="1435.4" y1="1082.9" x2="1468.3" y2="1097.5"/>
<line id="XMLID_47_" class="st1" x1="1461" y1="1016" x2="1495.3" y2="1027.1"/>
<line id="XMLID_48_" class="st1" x1="1479.6" y1="946.8" x2="1514.8" y2="954.3"/>
<line id="XMLID_49_" class="st1" x1="1490.8" y1="876.1" x2="1526.6" y2="879.8"/>
<line id="XMLID_50_" class="st0" x1="1494.5" y1="804.5" x2="1530.5" y2="804.5"/>
<line id="XMLID_51_" class="st1" x1="1490.8" y1="733" x2="1526.6" y2="729.3"/>
<line id="XMLID_52_" class="st1" x1="1479.6" y1="662.3" x2="1514.8" y2="654.8"/>
<line id="XMLID_53_" class="st1" x1="1461" y1="593.1" x2="1495.3" y2="582"/>
<line id="XMLID_54_" class="st1" x1="1435.4" y1="526.2" x2="1468.3" y2="511.6"/>
<line id="XMLID_55_" class="st0" x1="1402.9" y1="462.4" x2="1434" y2="444.4"/>
<line id="XMLID_56_" class="st1" x1="1363.8" y1="402.3" x2="1393" y2="381.2"/>
<line id="XMLID_57_" class="st1" x1="1318.8" y1="346.7" x2="1345.5" y2="322.6"/>
<line id="XMLID_58_" class="st1" x1="1268.1" y1="296" x2="1292.2" y2="269.3"/>
<line id="XMLID_59_" class="st1" x1="1212.5" y1="251" x2="1233.6" y2="221.8"/>
<line id="XMLID_60_" class="st0" x1="1152.4" y1="212" x2="1170.4" y2="180.8"/>
<line id="XMLID_61_" class="st1" x1="1088.6" y1="179.4" x2="1103.2" y2="146.6"/>
<line id="XMLID_62_" class="st1" x1="1021.7" y1="153.8" x2="1032.8" y2="119.5"/>
<line id="XMLID_63_" class="st1" x1="952.5" y1="135.2" x2="960" y2="100"/>
<line id="XMLID_64_" class="st1" x1="881.8" y1="124" x2="885.6" y2="88.2"/>
<text id="XMLID_5_" transform="matrix(1 0 0 1 792.2691 60.2645)" class="st2 st3">0</text>
<text id="XMLID_68_" transform="matrix(1 0 0 1 772.7672 1621.9352)" class="st2 st3">30</text>
<text id="XMLID_66_" transform="matrix(1 0 0 1 1554.1704 831.3697)" class="st2 st3">15</text>
<text id="XMLID_2_" transform="matrix(1 0 0 1 2.250671e-004 831.3698)" class="st2 st3">45</text>
<text id="XMLID_70_" transform="matrix(1 0 0 1 372.0729 153.7745)" class="st2 st3">55</text>
<text id="XMLID_73_" transform="matrix(1 0 0 1 1170.3997 153.7745)" class="st2 st3">5</text>
<text id="XMLID_76_" transform="matrix(1 0 0 1 1170.3997 1520.8513)" class="st2 st3">25</text>
<text id="XMLID_69_" transform="matrix(1 0 0 1 1456.4246 1202.1227)" class="st2 st3">20</text>
<text id="XMLID_71_" transform="matrix(1 0 0 1 1456.4246 444.4099)" class="st2 st3">10</text>
<text id="XMLID_74_" transform="matrix(1 0 0 1 90.0134 1217.3151)" class="st2 st3">40</text>
<text id="XMLID_75_" transform="matrix(1 0 0 1 93.1595 425.7076)" class="st2 st3">50</text>
<text id="XMLID_72_" transform="matrix(1 0 0 1 367.5723 1511.4888)" class="st2 st3">35</text>
</svg>
